<mxfile host="app.diagrams.net" modified="2023-10-13T12:42:36.904Z" agent="Mozilla/5.0 (Windows NT 10.0; Win64; x64) AppleWebKit/537.36 (KHTML, like Gecko) Chrome/117.0.0.0 Safari/537.36 Edg/117.0.2045.60" version="22.0.4" etag="nyC6YtH8nvuIP-9uyOws" type="github">
  <diagram name="PÃ¡gina-1" id="dyiEYOzvJGdhvANCB7qH">
    <mxGraphModel>
      <root>
        <mxCell id="0" />
        <mxCell id="1" parent="0" />
      </root>
    </mxGraphModel>
  </diagram>
</mxfile>
